<svg width="8" height="13" viewBox="0 0 8 13" fill="none" xmlns="http://www.w3.org/2000/svg">
<path d="M0.912929 12.7788C1.03357 12.7795 1.15316 12.7563 1.26484 12.7107C1.37653 12.6651 1.47811 12.5979 1.56376 12.5129L7.06376 7.01292C7.23449 6.84117 7.33032 6.60884 7.33032 6.36667C7.33032 6.1245 7.23449 5.89217 7.06376 5.72042L1.56376 0.220419C1.3884 0.0702448 1.16283 -0.00822743 0.93213 0.000683633C0.701427 0.00959469 0.482583 0.105232 0.31933 0.268486C0.156076 0.431739 0.0604376 0.650583 0.0515265 0.881287C0.0426154 1.11199 0.121088 1.33756 0.271263 1.51292L5.12043 6.36209L0.271263 11.2113C0.142543 11.3389 0.054569 11.5019 0.018466 11.6795C-0.0176371 11.8572 -0.00024807 12.0416 0.0684337 12.2094C0.137116 12.3771 0.254006 12.5208 0.404324 12.6221C0.554642 12.7235 0.731637 12.778 0.912929 12.7788Z" fill="#0C0D0D"/>
</svg>
